<?xml version="1.0" encoding="UTF-8"?>
<svg id="Layer_2" data-name="Layer 2" xmlns="http://www.w3.org/2000/svg" viewBox="0 0 808.56 445.57">
  <defs>
    <style>
      .cls-1 {
        stroke-width: 0px;
      }
    </style>
  </defs>
  <g id="Layer_1-2" data-name="Layer 1">
    <g>
      <path class="cls-1" d="m410.02,343.91c3.7-11.21,6.89-20.87,10.08-30.53,1.4-4.22,2.7-8.48,4.27-12.64.4-1.05,1.65-1.77,2.52-2.64.91,1.06,2.32,1.98,2.66,3.19,3.03,11.09,5.91,22.23,8.78,33.37,3.07,11.91,6.1,23.82,9.1,35.74,1.47,5.83,1.4,5.88-4.56,7.17-1.02.22-2.06.36-3.09.57-2.85.56-4.43-.61-5.05-3.44-1.67-7.66-3.4-15.31-5.17-22.95-1.09-4.72-2.29-9.41-4.68-14.16-2.62,8.14-5.22,16.29-7.85,24.42-1.45,4.48-2.86,8.97-4.52,13.37-.38,1-1.77,2.33-2.59,2.27-.9-.07-2.11-1.45-2.46-2.49-3.3-9.93-6.43-19.91-9.65-29.87-.79-2.45-1.71-4.85-3.17-8.96-1.19,3.79-2.05,6.01-2.58,8.3-2.26,9.94-4.53,19.88-6.56,29.87-.59,2.91-1.87,4.14-4.76,3.7-.26-.04-.52-.07-.78-.09-8.28-.76-8.97-1.58-6.93-9.47,5.54-21.53,11.18-43.03,16.78-64.54.39-1.51.67-3.09,1.32-4.49.96-2.08,3.11-2.1,4.09,0,1.1,2.36,1.94,4.86,2.75,7.34,3.84,11.67,7.63,23.36,12.05,36.96Z"/>
      <path class="cls-1" d="m583.23,347.05c7.09,8.06,13.76,15.65,20.24,23.03-.17.93-.09,1.59-.37,1.88-9.33,9.69-8.38,6.87-14.53-.25-4.1-4.74-8.23-9.46-12.45-14.1-3.16-3.48-3.43-3.38-7.12-1.04-4.06,2.57-6.61,5.83-5.76,10.95.13.76.03,1.57.02,2.35q-.07,7.55-7.26,7.14c-4.98-.29-5.22-.37-5.23-5.53-.07-23-.04-46.01-.04-69.01,0-.78-.03-1.58.07-2.35.4-2.98,1.65-3.69,4.15-2.38.46.24.84.62,1.26.92,15.21,10.99,30.42,21.97,46.53,33.61-6.72,5.08-12.85,9.72-19.52,14.76Zm-19.66-.03c6.78-5.29,12.43-9.7,18.72-14.61-6.47-4.75-12.26-9.01-18.72-13.75v28.36Z"/>
      <path class="cls-1" d="m677.8,370.01q-8.09,9.85-16.44,1.27c-5.27-5.45-10.44-11-15.69-16.46-1.21-1.26-2.6-2.36-4.77-4.3-.3,2.72-.63,4.36-.65,6.01-.07,5.49-.07,10.99,0,16.48.04,2.89-1.14,4.48-4.14,4.37-1.83-.07-3.76.05-5.44-.52-1.18-.4-2.45-1.67-2.88-2.85-.51-1.39-.18-3.1-.18-4.66,0-20.93,0-41.85,0-62.78,0-1.31.05-2.62.02-3.92-.06-2.69,1.41-3.7,3.91-3.65,1.05.02,2.09-.06,3.14-.04,5.07.12,5.41.34,5.51,5.25.12,5.99.03,11.98.03,19.03,1.97-1.42,3.23-2.09,4.19-3.06,6.07-6.13,12.04-12.36,18.1-18.49,5.01-5.07,5.03-5.02,10.41.06.95.89,2.08,1.59,3.73,2.82-10.28,11.68-22.01,20.85-31.29,31.46,10.91,11.44,21.51,22.55,32.44,34Z"/>
      <path class="cls-1" d="m467.39,375.64c5.55-14.75,10.77-28.68,16.03-42.6,3.98-10.52,7.95-21.04,12.07-31.51.5-1.27,1.89-2.18,2.87-3.26.95,1.11,2.32,2.07,2.78,3.36,7.71,21.41,15.31,42.85,22.93,64.29.35.98.78,1.95,1.01,2.96.5,2.2,1.73,6.1,1.2,6.36-3.17,1.57-6.73,2.45-10.23,3.17-.55.11-1.78-1.69-2.23-2.8-1.08-2.66-2.02-5.4-2.74-8.18-.65-2.48-2.15-3.37-4.54-3.36-5.76.02-11.52.05-17.27-.03-2.76-.03-4.4,1.15-5.14,3.81-.49,1.76-1.19,3.46-1.8,5.18q-2.22,6.32-8.85,4.53c-1.74-.47-3.44-1.09-6.09-1.94Zm38.27-23.76c-2.07-8.42-4.2-16.08-7.89-24.58-2.88,8.67-5.4,16.26-8.17,24.58h16.05Z"/>
      <path class="cls-1" d="m54.79,379.26c-1.66-.54-3.08-.64-4-1.36-16.79-13.23-33.51-26.55-50.79-40.27,6.09-5.71,11.52-10.92,17.08-15.98,7.74-7.05,15.57-14,23.38-20.97,4.41-3.93,4.76-3.93,8.98.08,1.49,1.42,2.83,3.01,4.9,5.24-11.84,10.18-23.45,20.16-35.85,30.81,7.8,6.87,15.94,12.33,24.75,19.27,0-7.14-.04-13.08,0-19.02.05-6.54,3.67-8.97,10.1-6.98,2.77.86,2.44,3.04,2.45,5.09.03,8.91.02,17.81.02,26.72,0,4.19.08,8.38-.05,12.57-.04,1.46-.58,2.91-.99,4.8Z"/>
      <path class="cls-1" d="m277.89,365.52c8.25,0,15.27-.07,22.28.04,1.91.03,4.8-.96,5.26,1.87.44,2.71-.1,5.61-.53,8.38-.08.49-1.75,1.05-2.68,1.05-13.6,0-27.19-.08-40.79-.19-.43,0-.86-.52-2.13-1.33,9.56-21.14,19.18-42.43,28.97-64.1-4.37-1.51-8.27-.77-12.07-.91-3.4-.13-6.8.04-10.2-.04-4.96-.13-7.8-5.44-5.17-9.78.44-.73,1.67-1.41,2.54-1.41,14.32-.09,28.65-.06,44.18-.06-9.23,22.69-19.97,43.47-29.68,66.48Z"/>
      <path class="cls-1" d="m228.91,378.88c-12.3-11.58-23.91-22.52-35.51-33.46-1.9-1.8-3.74-3.67-5.67-5.43-1.97-1.8-1.98-3.47-.02-5.28,2.31-2.13,4.54-4.34,6.82-6.5,8.94-8.46,17.89-16.91,26.85-25.35,1.33-1.26,2.76-2.41,4.12-3.64,1.83-1.67,3.59-1.98,5.42.02,2.09,2.29,4.25,4.52,6.71,7.13-9.57,8.12-18.65,15.84-27.74,23.55.15.46.31.93.46,1.39,6.49,0,12.98-.12,19.46.09,1.54.05,4.26,1.06,4.35,1.86.32,3,0,6.13-.64,9.09-.12.57-2.8.8-4.31.82-6.26.09-12.51.04-19.39.04,1.4,3.82,4.26,5.27,6.47,7.21,5.7,5,11.63,9.75,17.3,14.79,3.72,3.31,3.65,3.7.54,7.71-1.42,1.84-3.06,3.52-5.21,5.96Z"/>
      <path class="cls-1" d="m130.89,306.37c-9.72,8.15-18.69,15.68-28.51,23.91,4.27,1.62,7.81.84,11.2,1,2.87.13,5.76-.05,8.63.05,5.16.19,5.37.44,5.51,5.32.19,6.31.07,6.47-6.47,6.53-5.98.06-11.97.01-19.82.01,6.8,5.94,12.22,10.7,17.66,15.43,2.76,2.4,5.52,4.82,8.35,7.14,2.19,1.8,2.79,3.66.79,5.98-1.02,1.19-1.88,2.51-2.89,3.71-2.93,3.45-3.24,3.52-6.71.26-12-11.29-23.94-22.64-35.9-33.96-.38-.36-.76-.72-1.12-1.1-3.18-3.36-3.27-3.51.2-6.8,10.05-9.55,20.18-19.01,30.28-28.51,2.1-1.97,4.2-3.93,6.26-5.94,2.04-1.99,3.97-2.23,6.01.04,1.9,2.12,3.9,4.15,6.54,6.94Z"/>
      <path class="cls-1" d="m713.06,331.31c6.22,0,12.45-.08,18.67.03,5.06.09,5.06.19,4.99,5.46-.08,6.31-.08,6.35-6.43,6.41-5.98.05-11.97.01-19.84.01,5.59,4.87,9.79,8.56,14.03,12.2,4.17,3.58,8.38,7.11,12.59,10.64,1.91,1.61,2.47,3.31.54,5.31-.36.37-.65.82-.95,1.25q-4.77,6.8-10.87,1.06c-11.26-10.56-22.55-21.1-33.82-31.66-4.5-4.22-4.52-4.61.28-9.17,11.2-10.64,22.42-21.25,33.69-31.82,4.76-4.46,4.84-4.43,9.32.13,1.43,1.46,2.68,3.1,4.52,5.26-9.29,7.97-18.29,15.69-27.29,23.41.19.5.38,1,.58,1.5Z"/>
      <path class="cls-1" d="m777.61,343.56c0-9.68-.09-19.35.06-29.03.04-2.75-.97-3.86-3.57-3.86-3.4,0-6.81-.18-10.2-.02-3.36.16-4.63-1.23-4.76-4.55-.24-6.46.17-7.11,6.85-7.14,12.3-.06,24.6-.09,36.9.07,1.85.02,5,.77,5.27,1.79.71,2.64.35,5.66-.05,8.46-.08.59-2.16,1.19-3.34,1.26-3.13.18-6.28-.02-9.42.11-4.87.2-5.24.58-5.2,5.65.05,6.54.38,13.07.36,19.61-.04,11.77-.16,23.54-.43,35.31-.13,5.53-.71,5.87-6.65,5.74-5.26-.11-5.79-.69-5.77-5.94.03-9.15,0-18.31,0-27.46-.02,0-.03,0-.05,0Z"/>
      <path class="cls-1" d="m85.87,423.61c0,5.75-.01,11.5,0,17.25,0,2.26-1.06,3.28-3.33,3.3-2.33.03-3.3-1.08-3.3-3.32,0-3.66-.05-7.32-.07-10.98-.01-2.24-1.15-3.08-3.36-3.34-10.04-1.18-10.84-.51-10.89,9.94,0,1.31-.08,2.62,0,3.92.14,2.59-.89,3.88-3.63,3.78-2.5-.09-2.96-1.56-2.96-3.62.02-9.15,0-18.3,0-27.45,0-2.35-.02-4.71.03-7.06.05-2.46,1.75-3.29,3.69-2.74,1.12.32,2.59,1.77,2.71,2.85.36,3.36.22,6.78.16,10.18-.05,2.64,1.13,3.86,3.77,3.71.52-.03,1.05.02,1.57.02,10.25.03,8.92.31,8.98-8.78.01-1.57.04-3.14.01-4.71-.03-2.19.85-3.42,3.2-3.44,2.25-.02,3.4.96,3.4,3.23,0,5.75,0,11.5,0,17.25h.02Z"/>
      <path class="cls-1" d="m135.93,404.52c8.86,3.86,15.73,7.16,22.89,11.56-3.27,2.63-5.66,4.55-8.56,6.89,3.09,2.78,6.02,5.43,9.84,8.88-7.27,3.47-13.7,6.64-20.22,9.59-2.72,1.23-3.89-.45-3.91-2.97-.07-7.81-.04-15.62-.05-23.43,0-3.04,0-6.08,0-10.51Zm6.97,28.8c2.28-1.31,3.86-2.21,6.34-3.63-2.75-1.62-4.53-2.67-7.24-4.28.37,3.24.59,5.17.9,7.91Zm5.75-15.85c-2.52-1.15-3.97-1.81-5.41-2.47-.36,1.55-.71,3.09-1.31,5.67,2.56-1.22,4.04-1.92,6.72-3.2Z"/>
      <path class="cls-1" d="m341.74,423.36c4.32,3.18,7.82,5.76,12.28,9.05.22-4.18.3-7.21.57-10.23.2-2.26,1.81-3.36,3.82-2.76,1.2.36,2.91,1.83,2.93,2.83.15,7.46.72,14.96-.22,22.66-6.13-2.38-22.51-15.14-28.61-22.13,6.93-6.2,13.76-12.56,20.87-18.59,3.56-3.02,4.71.87,6.83,2.96-6.1,5.35-11.97,10.5-18.47,16.2Z"/>
      <path class="cls-1" d="m261.51,423.44c0,4.7,0,9.4,0,14.09,0,2.09-.68,3.54-3.08,3.56-2.43.02-3.09-1.47-3.11-3.54-.02-1.57-.02-3.13-.06-4.7-.15-6.49-.35-6.54-6.51-6.5-3.25.02-4.86,1.03-4.65,4.5.15,2.6.16,5.24-.2,7.8-.13.9-1.66,2.33-2.4,2.24-1.24-.15-2.4-1.26-3.48-2.11-.28-.22-.16-.99-.16-1.51-.01-9.13,0-18.27-.04-27.4,0-2.07.49-3.53,2.97-3.61,2.34-.08,3.33.99,3.3,3.24-.02,1.57,0,3.13.04,4.7.17,6.19.23,6.25,6.06,6.11,4.7-.11,4.84-.22,5.07-4.76.12-2.34-.22-4.77.31-7,.23-.97,2.08-1.97,3.3-2.13.74-.1,2.39,1.36,2.43,2.17.23,4.95.12,9.91.12,14.86.03,0,.06,0,.09,0Z"/>
      <path class="cls-1" d="m524.57,416.35c2.38,2.68,4.21,4.74,6.37,7.17-2.3,2.42-4.37,4.61-6.77,7.13,3.41,1.75,6.41,3.26,9.37,4.83,1.64.87,3.34,1.74,2.17,4.16-.96,2-2.21,2.78-4.3,1.5-1.76-1.08-2.91-.8-3.05,1.52-.14,2.35-1.69,3.44-3.66,2.67-1.04-.4-2.32-2.44-2.1-3.44,1.37-6.42-4.74-7.19-8.5-10.8,2.95-2.34,5.55-4.41,8.8-6.99-3-3.15-5.41-5.67-8.27-8.66,1.02-.83,1.83-1.86,2.88-2.26,3.61-1.4,5.36-3.7,5.07-7.74-.09-1.21.91-3.13,1.94-3.65,1.95-.97,3.52.15,3.88,2.39.35,2.19,1.69,2.39,3.38,1.76,2.13-.8,3.6-.22,4.26,1.93.74,2.41-1.16,3.13-2.78,3.98-2.72,1.41-5.44,2.82-8.68,4.51Z"/>
      <path class="cls-1" d="m124.56,440.03c-2.96,1.11-5.09,3.33-7.33-.97-2.38-4.58-8.85-4.61-11.84-.49-.45.62-.54,1.86-1.04,2.02-1.33.41-2.92.77-4.17.38-.75-.23-1.73-2.16-1.46-2.89,3.99-10.42,8.18-20.77,12.35-31.13.06-.14.44-.15,1.42-.46,4.44,10.86,8.2,22,12.07,33.53Zm-12.96-18.92c-1.18,2.97-2.03,4.34-2.17,5.78-.09.86.77,2.41,1.5,2.62,1.78.51,2.95-.54,2.61-2.48-.25-1.43-.89-2.78-1.94-5.93Z"/>
      <path class="cls-1" d="m287.83,406.54c3.58,10.06,7.16,20.12,10.76,30.17.67,1.88,1.04,3.59-1.4,4.45-1.93.68-3.2.38-4.55-1.57-3.78-5.48-8.63-5.44-12.4-.03-1.26,1.8-2.46,2.48-4.53,1.69-1.89-.72-2.26-2.08-1.64-3.74,3.87-10.4,7.8-20.79,11.71-31.18.69.07,1.37.13,2.06.2Zm-3.8,22.46q5.71.49,2.33-6.87c-.9,2.65-1.6,4.7-2.33,6.87Z"/>
      <path class="cls-1" d="m581.03,415.82c5.53,5.72,10.37,10.73,15.84,16.38-5.89,4.07-11.31,8.02-17.01,11.53-.88.54-3.24-.66-4.42-1.64-.41-.34.26-2.97,1.14-3.69,2.99-2.45,6.3-4.51,10.26-7.25-5.7-5.36-10.9-10.25-16.93-15.92,6.33-4.28,11.74-8.23,17.44-11.69,2.96-1.79,3.97,1.12,5.4,3.74-3.83,2.79-7.72,5.63-11.72,8.55Z"/>
      <path class="cls-1" d="m395.48,423.28c0-4.45.04-8.9-.01-13.36-.03-2.62,1.14-3.79,3.78-3.75,4.71.08,9.43.04,14.14.04,2.15,0,3.47.81,3.42,3.21-.05,2.53-1.67,2.94-3.68,2.95-2.88.01-5.77-.05-8.64.1-2.42.13-2.82,1.87-2.72,3.91.1,1.94.37,3.78,2.81,3.96,2.09.16,4.27-.21,6.24.31,1.12.29,2.61,1.9,2.61,2.91,0,.98-1.52,2.45-2.67,2.86-2.8,1-6.9-1.49-8.55,1.95-1.14,2.38-.4,5.65-.51,8.53-.02.52-.04,1.05-.08,1.57-.13,1.95-1.28,2.67-3.11,2.63-1.92-.03-2.91-1.04-2.93-2.89-.05-4.98-.02-9.95-.02-14.93-.03,0-.06,0-.09,0Z"/>
      <path class="cls-1" d="m608.8,404.57c8.83,4.97,15.43,10.62,23.09,16.57-4.3,3.1-7.94,5.88-11.75,8.42-2.93,1.95-5.55,3.87-5.04,7.98.27,2.15-.68,3.45-3.04,3.5-2.34.05-3.26-1.19-3.26-3.36,0-10.61,0-21.21,0-33.11Zm12.72,16.27c-2.06-1.45-3.59-2.54-5.8-4.09v8.78c2.38-1.92,3.84-3.1,5.8-4.68Z"/>
      <path class="cls-1" d="m707.12,420.51c1.8,0,3.71-.35,5.38.12,1.14.32,1.97,1.78,2.93,2.74-.99.99-1.81,2.45-3,2.87-1.63.58-3.54.37-5.86.54,1.36,3.77,4.68,5.09,6.81,7.43,1.57,1.72,3.78,3.19,1.25,5.8-2.14,2.21-3.88.74-5.32-.74-5.06-5.19-10-10.5-15.56-16.38,5.29-5.15,10.79-10.57,16.39-15.9,1.65-1.57,3.61-1.21,4.56.7.52,1.04.36,3.12-.38,3.95-2.36,2.69-5.14,5.01-7.75,7.48.18.46.37.93.55,1.39Z"/>
      <path class="cls-1" d="m181.28,420.05c3.3.27,5.66.3,7.93.76.72.15,1.75,1.51,1.68,2.23-.1,1.11-.83,2.85-1.64,3.07-2.19.6-4.57.53-7.89.82,3.55,3.28,6.36,5.9,9.21,8.5,1.71,1.56,1.6,3.01.07,4.69-1.61,1.76-3,1.68-4.61.06-4.81-4.81-9.64-9.6-14.52-14.35-1.67-1.63-1.63-3.08-.02-4.67,4.67-4.59,9.31-9.2,14-13.78,1.81-1.76,3.61-1.9,5.34.21,1.62,1.97.55,3.32-.93,4.65-2.68,2.41-5.34,4.83-8.61,7.81Z"/>
      <path class="cls-1" d="m212.85,417.23c4.96,4.63,9.11,8.52,13.99,13.08-5.04,3.61-9.39,6.72-13.75,9.84-2,1.43-3.88,1.49-5.4-.68-1.54-2.21.19-3.3,1.67-4.39,2.09-1.53,4.23-2.99,6.64-4.69-2.97-5.57-8.62-8.42-12.52-13.82,3.74-4.15,8.94-6.61,13.41-9.92,1.78-1.32,3.8-.48,4.41,1.51.32,1.06-.42,2.93-1.3,3.78-1.84,1.77-4.1,3.1-7.15,5.31Z"/>
      <path class="cls-1" d="m466.95,417.45c4.69,4.82,8.81,9.05,13.33,13.69-4.08,2.95-8.25,6.02-12.5,8.98-.8.56-2.06,1.16-2.83.9-1.08-.37-2.17-1.37-2.71-2.39-.32-.61.1-2.13.69-2.62,2.38-1.96,4.96-3.69,8.26-6.07-4.48-4.44-8.65-8.57-13.5-13.37,5-3.58,9.48-6.97,14.21-9.98.77-.49,2.94.35,3.9,1.21,1.36,1.22.96,2.81-.62,3.91-2.35,1.64-4.7,3.28-8.23,5.73Z"/>
      <path class="cls-1" d="m750.51,430.64c-4.66,3.4-8.84,6.47-13.04,9.51-1.97,1.42-3.97,1.59-5.41-.62-1.67-2.56.45-3.7,2.18-4.89,1.92-1.32,3.85-2.65,6.55-4.51-3.53-3.48-6.86-6.65-10.07-9.93-3.32-3.39-3.34-3.71.39-6.58,3.1-2.39,6.36-4.57,9.61-6.75,1.77-1.19,3.74-1.17,4.52.97.4,1.1-.11,3.12-.96,3.98-1.96,1.97-4.38,3.48-7.02,5.49,4.54,4.58,8.7,8.76,13.26,13.35Z"/>
      <path class="cls-1" d="m437.08,406.27c2.88,0,5.78-.2,8.63.11.9.1,2.22,1.49,2.31,2.4.11,1.01-.81,2.28-1.59,3.17-.4.45-1.48.44-2.25.4-3.15-.13-3.97,1.52-3.89,4.4.14,5.5.02,11,0,16.5,0,1.57-.04,3.14-.07,4.71-.04,2.3-1.37,3.59-3.47,3.02-1.1-.3-2.51-1.9-2.6-3.01-.33-4.17-.17-8.37-.19-12.56-.01-2.88-.09-5.76.01-8.64.1-2.83-.78-4.57-3.96-4.4-.77.04-1.9.15-2.27-.28-.76-.9-1.61-2.19-1.51-3.24.08-.91,1.35-2.33,2.21-2.43,2.85-.31,5.74-.12,8.62-.12v-.03Z"/>
      <path class="cls-1" d="m663.57,422.04c4.67-4.46,10.29-9.8,15.89-15.17,1.7-1.63,3.22-1.28,4.66.31,1.54,1.7,1.23,3.17-.45,4.67-4.05,3.6-8.02,7.3-12.76,11.62,4.21,3.85,8.02,7.27,11.75,10.77,3.6,3.37,3.56,3.41-1.91,8.2-5.47-6.49-10.99-13.05-17.19-20.4Z"/>
      <path class="cls-1" d="m381.9,424.08c0,4.45,0,8.89,0,13.34,0,2.07-.62,3.58-3.04,3.65-2.36.08-3.24-1.2-3.24-3.37,0-9.42,0-18.83-.01-28.25,0-2.29,1.09-3.27,3.37-3.21,2.54.07,2.9,1.72,2.9,3.71,0,4.71,0,9.42,0,14.13h.03Z"/>
      <path class="cls-1" d="m650.09,423.88c0,4.71.04,9.42-.02,14.13-.02,2.27-1.29,3.27-3.55,3.08-1.96-.17-2.51-1.23-2.5-3.14.04-9.41-.05-18.81-.1-28.22-.01-2.11.64-3.52,3.12-3.5,2.46.02,3.09,1.39,3.07,3.52-.03,4.71-.01,9.42-.01,14.13,0,0-.01,0-.02,0Z"/>
      <path class="cls-1" d="m162.64,309.36c0,2.09-.05,4.18.01,6.27.09,2.97-1.25,4.19-4.24,4.18-2.97,0-4.31-1.21-4.25-4.19.08-4.18.13-8.37.01-12.54-.08-3.07,1.37-4.14,4.25-4.16,2.94-.03,4.36,1.15,4.22,4.17-.1,2.09-.02,4.18-.02,6.27h.01Z"/>
      <g>
        <path class="cls-1" d="m171.02,97.24c-11.97-24.94-16.57-50.95,3.81-75.25C187.41,7,202.34-1.21,211.95.15c.57,4.2-3.32,4.75-5.52,6.51-5.88,4.73-12.22,8.95-17.77,14.04-15.47,14.2-19.93,38.06-9.82,58.42,1.49,3.01,3.14,5.94,5.19,9.79,6.14-3.46,11.79-6.64,17.44-9.82.45.41.89.81,1.34,1.22-.48,1.51-.56,3.38-1.53,4.45-2.63,2.89-5.36,5.83-8.55,8.04-4.09,2.84-3.83,5.79-1.42,9.3,9.61,14.02,19.53,27.82,28.75,42.09,8.07,12.49,16.4,24.98,22.74,38.36,10.4,21.95,3.74,43.8-16.56,56.9-15.9,10.26-33.55,16.25-52.65,15.58-21-.73-39.52-7.98-52.74-25.11-9.48-12.28-13.66-26.61-11.46-42.05,3.03-21.26,11.93-39.94,27.05-55.43,11.27-11.54,22.61-23.02,34.58-35.21Zm4.52,139.15c17.4-.42,32.56-6.88,45.88-17.75,7.33-5.98,8.44-14.22,6.09-22.88-4.45-16.39-13.92-30.36-22.62-44.6-7.89-12.9-16.74-25.21-25.03-37.87-3.23-4.93-4.54-5.39-8.87-1.1-5.75,5.7-11.46,11.48-16.69,17.65-14.17,16.72-26.03,34.62-29.25,57.1-1.98,13.84,1.86,25.87,11.69,34.96,10.62,9.83,23.85,14.94,38.8,14.47Z"/>
        <path class="cls-1" d="m319.56,110.58h-32.55c-3.12,16.38-5.51,33.71-13.59,51.14-1.74-2.27-3.4-3.54-3.77-5.1-.58-2.5-.36-5.19-.37-7.81-.05-18.58-.19-37.17-.05-55.75.09-10.94-2.49-21.23-6.77-31.14-3-6.93-15.89-13.49-23.94-11.88-5.84,1.17-11.47,3.4-17.21,5.08-2.82.82-5.69,1.47-10.14,2.61,1.34-3.07,1.63-4.61,2.52-5.6,5.29-5.86,11.09-11.02,18.67-13.95,23.75-9.17,46.5,5.32,52.46,29.98,1.53,6.33,2.43,12.85,3.11,19.33.4,3.82,1.7,5.91,5.7,5.72,11.21-.54,22.44-.92,33.63-1.81,1.92-.15,3.95-2.22,5.43-3.85,6.14-6.77,11.96-13.84,18.18-20.53,2.43-2.61,4.94-6.38,10.73-3.34-3.31,5.33-6.55,10.26-9.49,15.38-2.26,3.93-5.82,7.67-2.41,12.92.58.9-.39,3.91-1.5,4.62-10.67,6.83-12.42,18.28-15.04,29.08-3.69,15.23-6.16,30.63-5.88,46.47.29,16.07,2.91,31.72,6.54,47.26,1.96,8.4,4.38,16.7,6.48,25.07.53,2.1.61,4.32.88,6.37-4.95,1.54-5.9-1.89-7.35-4.07-10.97-16.55-18.78-34.49-21.95-54.13-3.92-24.31-2.98-48.45,4.58-72.1.86-2.7,1.67-5.41,3.07-9.97Z"/>
        <path class="cls-1" d="m48.05,197.86c-2.46-5.04-.72-10.03,1.76-14.38,6.99-12.23,13.59-24.84,21.95-36.11,13.05-17.59,27.7-33.99,41.16-51.3,9.15-11.77,17.31-24.32,21.29-38.96.75-2.76,1.1-6.66-.3-8.73-2.3-3.41-6.34-1.13-9.39-.09-2.92,1-5.76,2.63-8.22,4.52-14.28,10.96-28.44,22.07-42.64,33.14-3.17,2.47-2.17,5.34-1.09,8.49,5.64,16.51-6.29,31.75-23.59,30.28-11.98-1.02-21.73-13.18-19.88-24.8,2.21-13.91,14.42-23.48,26.76-19.24,8.64,2.97,12.77.72,17.98-6.03,7.64-9.88,16.45-18.99,25.65-27.48,6.25-5.77,13.93-10.03,21.14-14.69,1.89-1.22,4.38-1.76,6.67-2.05,20.85-2.64,28.95,12.14,24.82,28.6-2.69,10.74-8,20.91-12.82,31.02-6.05,12.68-16.39,22.15-25.64,32.43-17.3,19.23-34.47,38.57-51.54,58-2.56,2.91-4.31,6.54-6.45,9.82-1.8,2.76-3.64,5.49-5.47,8.23-.71-.23-1.41-.46-2.12-.68Zm10.72-84.28c5.2-.07,10.43-5.4,10.54-10.73.1-5.23-5.21-10.75-10.46-10.88-5.57-.14-11.24,5.68-10.92,11.2.31,5.4,5.61,10.48,10.85,10.41Z"/>
        <path class="cls-1" d="m483.73,214.31c-.23-11.48,4.04-22.51,5.02-34.69-12.94.6-24.62-1.72-33.53-11.62-9.71-10.79-6.69-22.12-1.16-34.03-5.52-2.46-10.85-1.02-16.59-1.11,1.74,5.65,3.74,10.69,4.81,15.92,3.9,19.13-5.44,32.71-24.61,35.31-6.88.94-14,1.59-20.76-1.91-10.81-5.6-13.88-15.76-12.43-26.59,2.6-19.3,18.01-34.87,39.64-35.75,7.3-.3,14.59-1.2,21.89-1.34,13.9-.27,27.61,1.46,41.09,4.88,12.58,3.19,20.48,14.53,17.5,28.29-4.26,19.64-9.98,38.97-15.23,58.4-.49,1.8-2.06,3.31-3.13,4.95-.84-.24-1.68-.47-2.52-.71Zm-70.4-40.85c10.26.94,19.31-4.74,21.41-12.12,2.4-8.45.91-16.59-2.22-24.45-.55-1.37-3.22-2.49-5.01-2.67-11.66-1.17-25.96,8.53-28.72,19.99-2.61,10.86.15,20.2,14.54,19.25Zm49.19-27.6c-.01,5.54-.29,11.75,4.7,15.06,5.11,3.39,11.14,5.72,17.07,7.45,4.87,1.42,7.2-.84,7.97-6,.54-3.61.79-7.25,1.34-10.86,1.49-9.79-1.32-13.83-11.23-16-1.79-.39-3.55-.89-5.33-1.31-13.05-3.07-14.49-1.92-14.52,11.66Z"/>
        <path class="cls-1" d="m614.87,219.53c-.48-3.45-1.35-6.89-1.37-10.34-.12-16.75-.32-33.51.13-50.25.27-10.19-3.47-17.4-12.01-22.94-11.87-7.7-14.75-21.79-7.66-33.65,1.67-2.79,3.36-4.77,6.82-2.76,3.12,1.81,3.36,3.97,1.64,7.19-3.76,7.06-1.81,13.24,4.97,17.95,4.69,3.26,9.52,6.39,13.78,10.16,3.39,2.99,6.12,1.77,9.24.16,8.71-4.5,17.24-4.38,26.29-.26,7.2,3.27,9.94,9.41,11.41,15.89,1.59,7.04,1.57,14.48,1.93,21.76.4,8.11,1.35,9.14,9.28,8.46,13.04-1.11,20.52,3.78,22.1,14.46,1.77,11.99-6.33,23.13-18.52,25.03-6.61,1.03-13.09.52-18.74-3.71-3.73-2.78-6.07-6.31-6.76-11.04-1.45-9.87-2.05-19.64-.43-29.65,1.04-6.38.75-13.08.29-19.58-.83-11.72-11.63-19.77-25.48-13.5-2.01.91-4.07,4.54-3.97,6.81.86,19.55-3.53,38.45-6.59,57.5-.68,4.22-2,8.33-3.03,12.5l-3.32-.19Zm63.79-13.09c5.71.02,10.06-3.64,10.14-8.53.08-4.99-4.71-8.42-11.89-8.52-4.88-.07-6.48,1.28-6.57,5.55-.17,7.65,2.6,11.49,8.32,11.51Z"/>
        <path class="cls-1" d="m704.48,178.21c-6.46-11.52-2.27-24.83,8.64-29.15,5.02-1.99,10.56-2.64,15.87-3.88,1.45-.34,2.91-.62,4.8-1.02-1.14-4.69-4.38-5.17-7.84-5.21-6.21-.07-11.67-2.07-16.88-5.46-8.17-5.32-9.65-13.25-9.03-21.94.31-4.32,1.94-4.66,8.05-2.48,1.2,12.52,6.14,17.15,19.28,17.08,10.26-.06,17.8,3.31,21.11,13.72,1.01,3.19,3.1,4.95,6.8,5.5,4.6.68,9.16,2.09,13.51,3.79,10.49,4.08,14.22,18.2,7.76,29.43-4.33-.88-4.16-4.76-4.9-7.8-1.73-7.08-6.48-10.47-13.35-11.33-5.67-.71-7.25.97-8.04,6.69-1.92,13.95-4.07,27.86-6.28,41.76-.39,2.44-1.49,4.76-2.27,7.14-.6.08-1.19.16-1.79.24-.8-1.64-2.23-3.25-2.29-4.92-.44-11.18-.66-22.37-.77-33.56-.04-3.38.7-6.76.7-10.14,0-6.72-.57-7.21-7-7.44-1.04-.04-2.09,0-3.14,0-12.65.04-15.49,2.03-20.38,14.1-.55,1.37-1.37,2.63-2.56,4.89Z"/>
        <path class="cls-1" d="m575.51,231.31c-.92-3.02-2.07-5.99-2.72-9.07-1.29-6.14-1.19-6.44-7.5-6.28-12.54.31-25.07.97-37.61,1.44-2.09.08-4.19,0-6.28-.11-3.02-.14-4.88-1.65-5.3-4.73-3.81-27.64-3.51-54.69,15.29-77.63,10.47-12.77,25.04-17.47,41.42-16.27,3.49.25,6.23,1.95,5.94,5.9-.52,7.02-1.36,14.01-2.18,21-.07.62-.96,1.14-2.42,2.77-1.17-2.43-2.42-4.19-2.85-6.14-.5-2.26-.2-4.7-.4-7.04-.42-5.05-1.56-6.15-6.3-5.56-6.38.8-12.07,3.36-16.9,7.64-8.5,7.54-13.8,17.14-16.46,27.99-2.6,10.63-4.59,21.42-2.78,32.53,1.01,6.19,1.39,6.8,7.93,7.08,12.01.51,24.02,1.02,36.04,1.54,7.13.31,8.24,1.28,7.98,8.42-.2,5.57-.41,11.24-4.91,16.51Z"/>
      </g>
    </g>
  </g>
</svg>